# Blender v2.79 (sub 0) OBJ File: 'lullabyassets.blend'
# www.blender.org
mtllib bush.mtl
o bush1_Cylinder.001
v -0.091087 0.381573 -0.018927
v -0.137018 0.422082 0.001594
v -0.047019 0.425776 -0.033148
v -0.100375 0.458837 -0.010231
v -0.077796 0.360711 0.018633
v -0.110109 0.409462 0.045754
v -0.044574 0.401681 -0.004432
v -0.073465 0.446218 0.033929
v -0.311618 0.670537 0.187474
v -0.291545 0.700820 0.188145
v -0.270915 0.686561 0.214442
v -0.290988 0.656279 0.213770
v -0.477641 0.786992 0.389127
v -0.470842 0.805051 0.398879
v -0.455534 0.793745 0.409141
v -0.462333 0.775686 0.399389
v -0.542613 0.807399 0.478825
v -0.343638 0.589882 0.162017
v -0.230044 0.618083 0.180756
v -0.407307 0.522896 0.087794
v -0.293713 0.551096 0.106533
v -0.211692 0.567322 0.063330
v -0.235522 0.536550 -0.048631
v -0.270873 0.592579 0.162878
v -0.294703 0.561807 0.050917
v -0.382060 0.707686 0.416471
v -0.386117 0.698917 0.328077
v -0.433220 0.691427 0.487358
v -0.437277 0.682658 0.398965
v -0.333214 0.776672 0.445945
v -0.398312 0.773815 0.385440
v -0.323506 0.766563 0.533754
v -0.388604 0.763706 0.473249
v -0.237680 0.698024 0.342274
v -0.353331 0.710422 0.319443
v -0.161147 0.723805 0.429039
v -0.276798 0.736203 0.406208
v -0.271094 0.627925 0.281669
v -0.319395 0.693543 0.317278
v -0.192849 0.587952 0.295328
v -0.241150 0.653571 0.330937
v -0.281108 0.616484 0.193450
v -0.263463 0.689895 0.240420
v -0.241136 0.539999 0.172024
v -0.223491 0.613410 0.218994
v 0.000000 -0.493850 0.000000
v -0.015450 0.728614 -0.043287
v 0.078453 -0.078453 -0.078453
v -0.027648 0.727493 0.049066
v 0.078453 -0.078453 0.078453
v -0.095295 0.681921 -0.054400
v -0.078453 -0.078453 -0.078453
v -0.107494 0.680801 0.037953
v -0.078453 -0.078453 0.078453
v -0.112347 0.870582 -0.038905
v -0.126985 0.866305 0.028450
v -0.153340 0.816394 -0.051256
v -0.167978 0.812116 0.016100
v -0.487415 1.117249 -0.069349
v 0.021319 1.060840 -0.003371
v 0.081858 1.040487 0.057134
v 0.097267 1.049650 0.005908
v 0.010472 1.051536 0.029495
v 0.078169 1.336620 0.093041
v -0.358219 1.090804 -0.289654
v -0.285816 1.171114 -0.139598
v -0.305228 0.975107 -0.423872
v -0.232825 1.055416 -0.273816
v -0.464959 1.120991 -0.183255
v -0.329246 1.147736 -0.172405
v -0.549462 1.042533 -0.260421
v -0.413749 1.069278 -0.249571
v -0.549654 1.226952 -0.149929
v -0.440760 1.222426 -0.235793
v -0.678550 1.176075 -0.142963
v -0.569656 1.171549 -0.228826
v -0.391035 1.204930 0.044505
v -0.330095 1.182492 -0.128675
v -0.551166 1.234926 0.132065
v -0.490226 1.212488 -0.041115
v -0.263998 1.118590 0.038829
v -0.329559 1.174335 -0.070006
v -0.290004 1.089626 0.172006
v -0.355565 1.145372 0.063170
v -0.277658 1.072969 0.240220
v -0.106986 1.137744 0.210487
v -0.423885 1.017730 0.141353
v -0.253213 1.082504 0.111619
v -0.181811 1.037766 0.355110
v -0.148916 1.108378 0.240293
v -0.282736 0.953807 0.400011
v -0.249841 1.024418 0.285194
v -0.139643 1.095624 0.475051
v -0.210282 1.150178 0.368820
v -0.159001 1.001593 0.575223
v -0.229638 1.056146 0.468992
v 0.065358 1.088777 0.328843
v -0.099765 1.129625 0.256217
v 0.136081 1.038444 0.492162
v -0.029041 1.079292 0.419537
v 0.059240 1.057661 0.178444
v -0.044187 1.109152 0.255271
v 0.179936 0.991929 0.197499
v 0.076508 1.043420 0.274327
v -0.135581 0.830889 0.393904
v -0.056075 0.895663 0.239982
v -0.302741 0.775650 0.450601
v -0.223235 0.840423 0.296680
v 0.013881 0.795685 0.387023
v -0.057685 0.866297 0.291402
v -0.011374 0.711726 0.494559
v -0.082940 0.782338 0.398938
v 0.134912 0.853543 0.425952
v 0.007588 0.908097 0.417989
v 0.202998 0.759512 0.501935
v 0.075674 0.814065 0.493972
v 0.142399 0.846697 0.174265
v -0.015283 0.887545 0.261879
v 0.315247 0.796363 0.216676
v 0.157565 0.837211 0.304291
v 0.018904 0.815580 0.088206
v 0.017566 0.867071 0.217039
v 0.107055 0.749848 0.003590
v 0.105717 0.801339 0.132423
v 0.294843 0.696480 -0.078233
v 0.144057 0.761254 -0.163536
v 0.345141 0.641241 0.090963
v 0.194355 0.706014 0.005660
v 0.293652 0.661277 -0.227848
v 0.195378 0.731888 -0.159971
v 0.400150 0.577317 -0.198521
v 0.301876 0.647929 -0.130644
v 0.337157 0.719135 -0.347311
v 0.324356 0.773688 -0.220381
v 0.415675 0.625103 -0.412457
v 0.402874 0.679657 -0.285528
v 0.085937 0.712288 -0.364366
v 0.167490 0.753136 -0.203465
v 0.134892 0.661955 -0.535475
v 0.216445 0.702802 -0.374575
v -0.004758 0.681172 -0.244234
v 0.123931 0.732662 -0.237996
v -0.085959 0.615439 -0.335539
v 0.042730 0.666930 -0.329302
v -0.287742 0.666422 -0.488666
v -0.315761 0.731196 -0.317704
v -0.146303 0.611183 -0.594270
v -0.174322 0.675956 -0.423308
v -0.427753 0.631219 -0.435910
v -0.330129 0.701830 -0.367102
v -0.436985 0.547259 -0.545986
v -0.339361 0.617871 -0.477178
v -0.554890 0.689077 -0.435510
v -0.431343 0.743631 -0.467305
v -0.643133 0.595045 -0.486719
v -0.519586 0.649599 -0.518513
v -0.484191 0.682230 -0.193841
v -0.361324 0.723078 -0.325916
v -0.661682 0.631897 -0.180731
v -0.538816 0.672745 -0.312806
v -0.340138 0.651114 -0.150182
v -0.378699 0.702605 -0.273116
v -0.397807 0.585382 -0.042457
v -0.436369 0.636873 -0.165391
v 0.243570 0.990900 0.080566
v 0.207500 1.055675 -0.088880
v 0.150217 0.935661 0.230374
v 0.114147 1.000435 0.060928
v 0.354810 0.955697 -0.019492
v 0.238848 1.026309 -0.048088
v 0.403439 0.871737 0.079690
v 0.287476 0.942349 0.051094
v 0.473098 1.013555 -0.066098
v 0.369571 1.068109 0.008448
v 0.573921 0.919523 -0.050484
v 0.470394 0.974077 0.024061
v 0.319356 1.006708 -0.265512
v 0.252931 1.047556 -0.097799
v 0.479929 0.956375 -0.342268
v 0.413503 0.997223 -0.174555
v 0.169290 0.975592 -0.253797
v 0.249915 1.027083 -0.153303
v 0.183837 0.909860 -0.375118
v 0.264463 0.961351 -0.274624
v 0.219074 1.416345 0.087426
v 0.185434 1.488508 -0.079516
v 0.123965 1.362516 0.236641
v 0.090325 1.434678 0.069699
v 0.326785 1.377278 -0.015032
v 0.215271 1.455959 -0.040027
v 0.370996 1.287363 0.080946
v 0.259482 1.366044 0.055950
v 0.448028 1.428933 -0.061332
v 0.348981 1.487605 0.016117
v 0.542804 1.328254 -0.049834
v 0.443758 1.386926 0.027615
v 0.292077 1.438050 -0.258931
v 0.230158 1.477804 -0.089243
v 0.448295 1.380037 -0.339173
v 0.386377 1.419790 -0.169484
v 0.140462 1.416170 -0.246297
v 0.225260 1.459296 -0.145300
v 0.149510 1.353446 -0.369727
v 0.234308 1.396572 -0.268729
v 0.379984 1.235881 -0.173551
v 0.209748 1.306048 -0.156085
v 0.528401 1.204826 -0.067644
v 0.358166 1.274992 -0.050177
v 0.281905 1.175164 -0.275135
v 0.251152 1.270510 -0.179143
v 0.382158 1.082927 -0.301454
v 0.351405 1.178274 -0.205462
v 0.237080 1.203721 -0.404313
v 0.309714 1.281295 -0.315107
v 0.254677 1.089007 -0.480353
v 0.327311 1.166581 -0.391148
v 0.035162 1.231259 -0.256258
v 0.201612 1.287566 -0.198529
v -0.038748 1.144563 -0.401961
v 0.127701 1.200869 -0.344233
v 0.044484 1.235830 -0.102903
v 0.146134 1.267956 -0.191708
v -0.076360 1.167660 -0.103691
v 0.025289 1.199786 -0.192496
v -0.091868 1.428971 -0.279400
v -0.007928 1.499139 -0.130271
v -0.053976 1.397916 -0.457748
v 0.029964 1.468083 -0.308620
v -0.145882 1.368254 -0.148934
v -0.045592 1.463600 -0.159036
v -0.210017 1.276018 -0.230360
v -0.109726 1.371364 -0.240462
v -0.246446 1.396811 -0.056289
v -0.193630 1.474385 -0.158485
v -0.323193 1.282097 -0.042085
v -0.270377 1.359671 -0.144280
v -0.030121 1.424350 0.069784
v -0.043601 1.480656 -0.105875
v -0.134233 1.337653 0.195693
v -0.147714 1.393960 0.020033
v 0.106777 1.428920 0.000048
v -0.015210 1.461046 -0.057727
v 0.154272 1.360750 0.111170
v 0.032284 1.392876 0.053396
v 0.139587 1.045146 -0.456547
v -0.038520 1.089914 -0.478504
v 0.279184 1.085002 -0.341949
v 0.101077 1.129769 -0.363906
v 0.059933 0.932869 -0.524918
v 0.008832 1.054488 -0.481922
v 0.172337 0.854266 -0.503992
v 0.121236 0.975885 -0.460997
v 0.025333 0.896144 -0.655170
v 0.079137 1.014343 -0.606331
v 0.063670 0.763898 -0.672274
v 0.117474 0.882097 -0.623435
v -0.192286 0.954368 -0.542471
v -0.040146 1.054004 -0.508790
v -0.240607 0.803574 -0.638047
v -0.088466 0.903210 -0.604365
v -0.199041 1.025728 -0.406502
v -0.093380 1.031245 -0.496259
v -0.310474 0.946757 -0.382058
v -0.204813 0.952275 -0.471815
v 0.171088 1.189177 0.428587
v 0.260594 1.234102 0.273091
v -0.002761 1.183376 0.491444
v 0.086744 1.228300 0.335948
v 0.303019 1.111751 0.413592
v 0.252210 1.204354 0.323625
v 0.257908 1.034479 0.519634
v 0.207098 1.127082 0.429667
v 0.437097 1.129589 0.448472
v 0.331494 1.219583 0.448180
v 0.476924 1.016497 0.518294
v 0.371322 1.106491 0.518002
v 0.433077 1.131583 0.196620
v 0.297906 1.213378 0.292781
v 0.584623 1.030709 0.229279
v 0.449452 1.112504 0.325440
v 0.302873 1.142008 0.115604
v 0.321550 1.186053 0.245842
v 0.364417 1.056857 0.024979
v 0.383094 1.100903 0.155218
v -0.525723 0.857812 0.325646
v -0.473438 0.891385 0.449111
v -0.484766 0.853476 0.193706
v -0.432482 0.887048 0.317171
v -0.576292 0.799951 0.411021
v -0.499768 0.869154 0.421323
v -0.619132 0.742205 0.336313
v -0.542607 0.811408 0.346615
v -0.657547 0.813281 0.475180
v -0.609744 0.880535 0.412388
v -0.717114 0.728767 0.467420
v -0.669311 0.796020 0.404628
v -0.505666 0.814771 0.586376
v -0.501999 0.875898 0.462462
v -0.593477 0.739387 0.661946
v -0.589810 0.800514 0.538033
v -0.398667 0.822562 0.545333
v -0.484695 0.855477 0.497721
v -0.372425 0.758928 0.622878
v -0.458453 0.791844 0.575267
v -0.101722 0.462228 0.024265
v 0.003595 0.501011 0.033496
v 0.013727 0.501942 -0.082210
v -0.091590 0.463159 -0.091440
vn -0.2900 -0.6613 -0.6918
vn -0.7910 -0.3356 -0.5115
vn 0.1368 0.6175 -0.7745
vn 0.5622 0.2860 -0.7760
vn 0.8037 0.3181 0.5028
vn 0.9699 -0.2434 -0.0040
vn -0.1445 -0.6664 0.7314
vn 0.1594 -0.9294 0.3328
vn 0.8080 0.3623 0.4645
vn -0.1045 -0.7502 0.6528
vn 0.7192 0.2982 0.6275
vn -0.0249 -0.8909 0.4535
vn -0.8222 -0.2177 -0.5259
vn 0.0774 0.8161 -0.5726
vn -0.8012 -0.1989 -0.5643
vn -0.6820 0.1491 0.7160
vn -0.0702 0.9593 -0.2737
vn 0.5046 -0.0673 0.8607
vn 0.7361 0.0296 -0.6761
vn 0.8372 0.0091 -0.5467
vn 0.5513 -0.1678 0.8172
vn -0.7025 -0.1044 0.7039
vn -0.6858 -0.1401 -0.7141
vn 0.0000 -1.0000 0.0000
vn 0.6962 -0.0534 0.7158
vn 0.7309 -0.0839 -0.6773
vn 0.6693 0.0831 0.7383
vn -0.7173 -0.1575 0.6786
vn -0.7721 -0.0016 0.6354
vn 0.7149 0.1521 -0.6824
vn -0.5858 -0.0304 -0.8099
vn -0.6501 0.0268 -0.7593
vn 0.0239 0.5043 -0.8632
vn -0.4135 -0.2977 -0.8604
vn -0.7763 0.6168 -0.1296
vn -0.2606 0.4203 0.8691
vn -0.7039 -0.3726 0.6047
vn -0.4245 0.3871 -0.8185
vn -0.7782 0.3131 0.5444
vn 0.0777 0.9684 0.2370
vn -0.0899 0.7765 -0.6237
vn -0.0252 0.9653 -0.2599
vn -0.1644 0.9777 0.1307
vn -0.3924 0.9169 -0.0729
vn 0.1785 0.8890 -0.4216
vn 0.3850 0.4299 -0.8166
vn 0.4422 0.6569 -0.6107
vn 0.2900 0.7785 -0.5566
vn -0.3445 0.8071 -0.4794
vn -0.0949 0.7481 -0.6567
vn 0.1423 0.9868 -0.0778
vn 0.3345 0.9052 0.2622
vn -0.3545 0.9350 0.0019
vn -0.3542 0.7150 0.6027
vn -0.5065 0.7916 0.3417
vn 0.1329 0.9619 0.2389
vn 0.4722 0.8803 0.0457
vn -0.2128 0.9350 0.2835
vn 0.2659 0.7150 0.6466
vn -0.0340 0.7916 0.6100
vn 0.2706 0.9619 0.0386
vn 0.3219 0.8803 -0.3485
vn 0.2752 0.9350 0.2234
vn 0.6562 0.7150 -0.2411
vn 0.6083 0.7916 0.0572
vn 0.0489 0.9619 -0.2690
vn -0.3360 0.8803 -0.3349
vn 0.1147 0.9350 -0.3355
vn -0.4528 0.7150 -0.5326
vn -0.1562 0.7916 -0.5907
vn -0.2693 0.9619 0.0469
vn -0.1984 0.8803 0.4309
vn 0.0151 0.9350 0.3542
vn 0.6155 0.7150 0.3315
vn 0.3603 0.7916 0.4934
vn 0.2338 0.9619 -0.1417
vn 0.0281 0.8803 -0.4736
vn 0.0785 0.9207 0.3822
vn 0.6633 0.6639 0.3453
vn 0.4153 0.7514 0.5127
vn 0.2932 0.9491 -0.1153
vn 0.0792 0.8910 -0.4470
vn 0.3513 0.9086 -0.2259
vn 0.3393 0.5553 -0.7592
vn 0.4967 0.6901 -0.5263
vn -0.1409 0.8806 -0.4524
vn -0.4759 0.8465 -0.2386
vn -0.3473 0.9086 -0.2320
vn -0.8316 0.5553 -0.0082
vn -0.6808 0.6901 -0.2455
vn -0.3586 0.8806 0.3098
vn -0.0288 0.8465 0.5316
vn 0.2646 0.7642 -0.5881
vn 0.3474 0.2186 -0.9119
vn 0.4639 0.4621 -0.7558
vn -0.1958 0.5690 -0.7987
vn -0.5444 0.5809 -0.6052
vn 0.0847 0.9432 0.3212
vn 0.4894 0.5764 0.6544
vn 0.2245 0.7396 0.6344
vn 0.5451 0.8366 0.0546
vn 0.5557 0.7601 -0.3367
vn -0.3072 0.9432 -0.1263
vn -0.8171 0.5764 -0.0048
vn -0.6414 0.7396 -0.2039
vn -0.3725 0.8366 0.4017
vn -0.0669 0.7601 0.6464
usemtl tree
s 1
f 1//1 2//2 4//3 3//4
f 3//4 4//3 8//5 7//6
f 7//6 8//5 6//7 5//8
f 5//8 6//7 2//2 1//1
f 3//4 7//6 5//8 1//1
f 6//7 8//5 11//9 12//10
f 12//10 11//9 15//11 16//12
f 4//3 2//2 9//13 10//14
f 2//2 6//7 12//10 9//13
f 8//5 4//3 10//14 11//9
f 13//15 16//12 17//16
f 10//14 9//13 13//15 14//17
f 9//13 12//10 16//12 13//15
f 11//9 10//14 14//17 15//11
f 15//11 14//17 17//16
f 16//12 15//11 17//16
f 14//17 13//15 17//16
f 49//18 47//19 62//20 61//21
f 54//22 52//23 46//24
f 50//25 54//22 46//24
f 48//26 50//25 46//24
f 306//27 49//18 53//28 305//29
f 52//23 48//26 46//24
f 307//30 47//19 49//18 306//27
f 305//29 53//28 51//31 308//32
f 308//32 51//31 47//19 307//30
f 55//33 57//34 59//35
f 53//28 49//18 56//36 58//37
f 51//31 53//28 58//37 57//34
f 47//19 51//31 57//34 55//33
f 47//19 55//33 60//38 62//20
f 58//37 56//36 59//35
f 57//34 58//37 59//35
f 56//36 55//33 59//35
f 60//38 63//39 64//40
f 56//36 49//18 61//21 63//39
f 55//33 56//36 63//39 60//38
f 61//21 62//20 64//40
f 62//20 60//38 64//40
f 63//39 61//21 64//40
f 52//23 308//32 307//30 48//26
f 54//22 305//29 308//32 52//23
f 48//26 307//30 306//27 50//25
f 50//25 306//27 305//29 54//22
usemtl snow
f 18//41 19//41 21//41 20//41
f 25//42 24//42 22//42 23//42
f 30//43 31//43 33//43 32//43
f 26//44 27//44 29//44 28//44
f 34//45 35//45 37//45 36//45
f 42//46 43//46 45//46 44//46
f 38//47 39//47 41//47 40//47
f 65//48 66//48 68//48 67//48
f 73//49 74//49 76//49 75//49
f 69//50 70//50 72//50 71//50
f 77//51 78//51 80//51 79//51
f 81//52 82//52 84//52 83//52
f 85//53 86//53 88//53 87//53
f 93//54 94//54 96//54 95//54
f 89//55 90//55 92//55 91//55
f 97//56 98//56 100//56 99//56
f 101//57 102//57 104//57 103//57
f 105//58 106//58 108//58 107//58
f 113//59 114//59 116//59 115//59
f 109//60 110//60 112//60 111//60
f 117//61 118//61 120//61 119//61
f 121//62 122//62 124//62 123//62
f 125//63 126//63 128//63 127//63
f 133//64 134//64 136//64 135//64
f 129//65 130//65 132//65 131//65
f 137//66 138//66 140//66 139//66
f 141//67 142//67 144//67 143//67
f 145//68 146//68 148//68 147//68
f 153//69 154//69 156//69 155//69
f 149//70 150//70 152//70 151//70
f 157//71 158//71 160//71 159//71
f 161//72 162//72 164//72 163//72
f 165//73 166//73 168//73 167//73
f 173//74 174//74 176//74 175//74
f 169//75 170//75 172//75 171//75
f 177//76 178//76 180//76 179//76
f 181//77 182//77 184//77 183//77
f 185//78 186//78 188//78 187//78
f 193//79 194//79 196//79 195//79
f 189//80 190//80 192//80 191//80
f 197//81 198//81 200//81 199//81
f 201//82 202//82 204//82 203//82
f 205//83 206//83 208//83 207//83
f 213//84 214//84 216//84 215//84
f 209//85 210//85 212//85 211//85
f 217//86 218//86 220//86 219//86
f 221//87 222//87 224//87 223//87
f 225//88 226//88 228//88 227//88
f 233//89 234//89 236//89 235//89
f 229//90 230//90 232//90 231//90
f 237//91 238//91 240//91 239//91
f 241//92 242//92 244//92 243//92
f 245//93 246//93 248//93 247//93
f 253//94 254//94 256//94 255//94
f 249//95 250//95 252//95 251//95
f 257//96 258//96 260//96 259//96
f 261//97 262//97 264//97 263//97
f 265//98 266//98 268//98 267//98
f 273//99 274//99 276//99 275//99
f 269//100 270//100 272//100 271//100
f 277//101 278//101 280//101 279//101
f 281//102 282//102 284//102 283//102
f 285//103 286//103 288//103 287//103
f 293//104 294//104 296//104 295//104
f 289//105 290//105 292//105 291//105
f 297//106 298//106 300//106 299//106
f 301//107 302//107 304//107 303//107
