# Blender v2.79 (sub 0) OBJ File: 'lullabyassets.blend'
# www.blender.org
mtllib pinetree.mtl
o pinetree_Cube.001
v 0.095433 5.414698 -0.164243
v 0.000979 5.414698 -0.198622
v 0.000979 0.177730 -0.342715
v 0.000979 1.310904 -0.274475
v 0.188054 0.177730 -0.274625
v 0.144190 1.310904 -0.222350
v 0.287595 0.177730 -0.102216
v 0.220392 1.310904 -0.090366
v 0.253025 0.177730 0.093841
v 0.193927 1.310904 0.059721
v 0.100520 0.177730 0.221808
v 0.077180 1.310904 0.157683
v -0.098562 0.177730 0.221808
v -0.075222 1.310904 0.157683
v -0.251066 0.177730 0.093841
v -0.191969 1.310904 0.059721
v -0.285637 0.177730 -0.102216
v -0.218433 1.310904 -0.090366
v -0.186096 0.177730 -0.274625
v -0.142232 1.310904 -0.222350
v 0.145691 5.414698 -0.077194
v 0.128236 5.414698 0.021794
v 0.051237 5.414698 0.086404
v -0.049279 5.414698 0.086404
v -0.126278 5.414698 0.021794
v -0.143732 5.414698 -0.077194
v -0.093474 5.414698 -0.164243
v 0.024396 8.315925 -0.079585
v 0.000979 8.315925 -0.088109
v 0.036856 8.315925 -0.058004
v 0.032529 8.315925 -0.033462
v 0.013439 8.315925 -0.017444
v -0.011481 8.315925 -0.017444
v -0.030571 8.315925 -0.033462
v -0.034898 8.315925 -0.058004
v -0.022438 8.315925 -0.079585
v 0.000979 7.522988 -0.503786
v 0.283350 7.522988 -0.700879
v 0.354452 7.522988 -0.333563
v 0.662731 7.522988 -0.225150
v 0.441752 7.522988 0.048926
v 0.680417 7.522988 0.490156
v 0.197142 7.522988 0.355657
v -0.020890 7.522988 0.632083
v -0.195183 7.522988 0.355657
v -0.569111 7.522988 0.368074
v 0.000979 9.210304 -0.051678
v -0.439793 7.522988 0.048926
v -0.704511 7.522988 -0.225150
v -0.352493 7.522988 -0.333563
v -0.325130 7.522988 -0.700879
v 0.000979 5.585428 -1.050961
v 0.581402 5.585428 -1.256938
v 0.782250 5.585428 -0.674720
v 1.305178 5.585428 -0.349352
v 0.975208 5.585428 0.170684
v 1.046865 5.585428 0.782388
v 0.434552 5.585428 0.848645
v 0.000980 5.585428 1.286060
v -0.432593 5.585428 0.848645
v -1.044906 5.585428 0.782389
v 0.000979 7.555571 -0.051678
v -0.973249 5.585428 0.170684
v -1.303219 5.585428 -0.349353
v -0.780291 5.585428 -0.674721
v -0.579443 5.585428 -1.256939
v 0.000979 4.585482 -1.119439
v 0.684181 4.585482 -1.470361
v 0.835789 4.585482 -0.717416
v 1.536120 4.585482 -0.402063
v 1.041970 4.585482 0.185921
v 1.232066 4.585482 0.930081
v 0.464264 4.585482 0.910342
v 0.000980 4.585482 1.522942
v -0.462305 4.585482 0.910342
v -1.230107 4.585482 0.930081
v 0.000979 7.187493 -0.051678
v -1.040011 4.585482 0.185922
v -1.534161 4.585482 -0.402064
v -0.833830 4.585482 -0.717416
v -0.682222 4.585482 -1.470361
v 0.000979 3.375522 -1.288278
v 0.863130 3.375522 -1.841952
v 0.967792 3.375522 -0.822685
v 1.938214 3.375522 -0.493839
v 1.206575 3.375522 0.223492
v 1.554520 3.375522 1.187230
v 0.537520 3.375522 1.062460
v 0.000980 3.375522 1.935376
v -0.535561 3.375522 1.062461
v -1.552562 3.375522 1.187230
v 0.000979 6.184578 -0.051678
v -1.204617 3.375522 0.223492
v -1.936255 3.375522 -0.493839
v -0.965833 3.375522 -0.822686
v -0.861170 3.375522 -1.841952
v 0.000979 2.222296 -1.558496
v 1.012724 2.222296 -2.152587
v 1.179057 2.222296 -0.991164
v 2.274349 2.222296 -0.570559
v 1.470018 2.222296 0.283621
v 1.824080 2.222296 1.402197
v 0.654763 2.222296 1.305918
v 0.000980 2.222296 2.280156
v -0.652804 2.222296 1.305919
v -1.822121 2.222296 1.402197
v 0.000979 5.263560 -0.051678
v -1.468060 2.222296 0.283621
v -2.272391 2.222296 -0.570560
v -1.177098 2.222296 -0.991164
v -1.010765 2.222296 -2.152588
v 0.000979 6.533195 -0.845672
v 0.462163 6.533195 -1.009335
v 0.621749 6.533195 -0.546725
v 1.037249 6.533195 -0.288199
v 0.775067 6.533195 0.125003
v 0.832003 6.533195 0.611041
v 0.345481 6.533195 0.663686
v 0.000980 6.533195 1.011241
v -0.343522 6.533195 0.663687
v -0.830044 6.533195 0.611041
v 0.000979 8.667633 -0.051678
v -0.773108 6.533195 0.125003
v -1.035290 6.533195 -0.288200
v -0.619790 6.533195 -0.546725
v -0.460203 6.533195 -1.009335
v 0.000979 -0.236309 -0.366247
v 0.203181 -0.236309 -0.292652
v 0.310770 -0.236309 -0.106302
v 0.273405 -0.236309 0.105607
v 0.108568 -0.236309 0.243921
v -0.106610 -0.236309 0.243921
v -0.271446 -0.236309 0.105607
v -0.308812 -0.236309 -0.106302
v -0.201222 -0.236309 -0.292652
v 0.000979 -0.611985 -0.051678
vn -0.0350 0.2587 -0.9653
vn -0.0008 0.2588 -0.9659
vn -0.5590 0.2146 -0.8009
vn 0.9552 0.2310 -0.1849
vn 0.7546 0.2588 -0.6030
vn 0.7291 0.2586 -0.6337
vn 0.3235 0.2215 -0.9199
vn 0.7569 0.2341 0.6102
vn 0.9676 0.2520 -0.0127
vn 0.9637 0.2562 0.0747
vn 0.8623 0.1974 -0.4664
vn -0.2628 0.1974 0.9444
vn 0.2029 0.2520 0.9462
vn 0.2873 0.2562 0.9229
vn 0.7633 0.2341 0.6021
vn -0.8249 0.2215 0.5201
vn -0.4199 0.2588 0.8699
vn -0.4556 0.2586 0.8518
vn 0.0323 0.2310 0.9724
vn -0.9052 0.2146 -0.3668
vn -0.9419 0.2588 0.2141
vn -0.9489 0.2587 0.1807
vn -0.7011 0.2235 0.6771
vn -0.2874 0.2161 -0.9331
vn -0.7552 0.2588 -0.6022
vn -0.9737 0.2161 -0.0725
vn 0.5042 0.2235 -0.8342
vn 0.0000 0.4524 -0.8918
vn -0.3017 0.4313 -0.8503
vn 0.8529 0.4313 -0.2942
vn 0.6973 0.4524 -0.5561
vn 0.4766 0.4313 -0.7660
vn 0.7618 0.4313 0.4834
vn 0.8695 0.4524 0.1985
vn 0.8961 0.4313 -0.1050
vn 0.0971 0.4313 0.8970
vn 0.3870 0.4524 0.8035
vn 0.6408 0.4313 0.6351
vn -0.6408 0.4313 0.6351
vn -0.3870 0.4524 0.8035
vn -0.0971 0.4313 0.8970
vn -0.8961 0.4313 -0.1050
vn -0.8695 0.4524 0.1985
vn -0.7618 0.4313 0.4834
vn -0.4766 0.4313 -0.7660
vn -0.6973 0.4524 -0.5561
vn -0.8529 0.4313 -0.2942
vn 0.3017 0.4313 -0.8503
vn 0.0000 0.3796 -0.9251
vn -0.4292 0.3429 -0.8356
vn 0.9209 0.3429 -0.1854
vn 0.7233 0.3796 -0.5768
vn 0.3857 0.3429 -0.8565
vn 0.7191 0.3429 0.6044
vn 0.9019 0.3796 0.2059
vn 0.9101 0.3429 -0.2325
vn -0.0241 0.3429 0.9391
vn 0.4014 0.3796 0.8335
vn 0.7492 0.3429 0.5666
vn -0.7492 0.3429 0.5666
vn -0.4014 0.3796 0.8335
vn 0.0241 0.3429 0.9391
vn -0.9101 0.3429 -0.2325
vn -0.9019 0.3796 0.2059
vn -0.7191 0.3429 0.6044
vn -0.3857 0.3429 -0.8565
vn -0.7233 0.3796 -0.5768
vn -0.9209 0.3429 -0.1854
vn 0.4292 0.3429 -0.8356
vn 0.0000 0.4029 -0.9152
vn -0.5067 0.3473 -0.7890
vn 0.9328 0.3473 -0.0958
vn 0.7156 0.4029 -0.5706
vn 0.3010 0.3473 -0.8881
vn 0.6565 0.3473 0.6696
vn 0.8923 0.4029 0.2037
vn 0.8820 0.3473 -0.3184
vn -0.1142 0.3473 0.9308
vn 0.3971 0.4029 0.8246
vn 0.7989 0.3473 0.4910
vn -0.7989 0.3473 0.4910
vn -0.3971 0.4029 0.8246
vn 0.1142 0.3473 0.9308
vn -0.8820 0.3473 -0.3184
vn -0.8923 0.4029 0.2037
vn -0.6565 0.3473 0.6696
vn -0.3010 0.3473 -0.8881
vn -0.7156 0.4029 -0.5706
vn -0.9328 0.3473 -0.0958
vn 0.5067 0.3473 -0.7890
vn 0.0000 0.4440 -0.8960
vn -0.4656 0.3929 -0.7930
vn 0.9103 0.3929 -0.1304
vn 0.7006 0.4440 -0.5587
vn 0.3297 0.3929 -0.8585
vn 0.6695 0.3929 0.6304
vn 0.8736 0.4440 0.1994
vn 0.8767 0.3929 -0.2775
vn -0.0755 0.3929 0.9165
vn 0.3888 0.4440 0.8073
vn 0.7636 0.3929 0.5124
vn -0.7636 0.3929 0.5124
vn -0.3888 0.4440 0.8073
vn 0.0755 0.3929 0.9165
vn -0.8767 0.3929 -0.2775
vn -0.8736 0.4440 0.1994
vn -0.6695 0.3929 0.6304
vn -0.3297 0.3929 -0.8585
vn -0.7006 0.4440 -0.5587
vn -0.9103 0.3929 -0.1304
vn 0.4656 0.3929 -0.7930
vn 0.0000 0.3487 -0.9373
vn -0.3156 0.3308 -0.8893
vn 0.8921 0.3308 -0.3077
vn 0.7328 0.3487 -0.5844
vn 0.4985 0.3308 -0.8013
vn 0.7968 0.3308 0.5056
vn 0.9138 0.3487 0.2086
vn 0.9373 0.3308 -0.1098
vn 0.1015 0.3308 0.9382
vn 0.4067 0.3487 0.8444
vn 0.6702 0.3308 0.6643
vn -0.6702 0.3308 0.6643
vn -0.4067 0.3487 0.8444
vn -0.1015 0.3308 0.9382
vn -0.9373 0.3308 -0.1098
vn -0.9138 0.3487 0.2086
vn -0.7968 0.3308 0.5056
vn -0.4985 0.3308 -0.8013
vn -0.7328 0.3487 -0.5844
vn -0.8921 0.3308 -0.3077
vn 0.3156 0.3308 -0.8893
vn 0.9844 0.0282 -0.1736
vn 0.6425 0.0282 -0.7657
vn 0.6423 0.0381 -0.7655
vn 0.9841 0.0381 -0.1735
vn 0.9840 0.0395 -0.1735
vn 0.6423 0.0395 -0.7654
vn 0.0000 0.0584 -0.9983
vn 0.0000 0.0395 -0.9992
vn 0.6417 0.0584 -0.7647
vn 0.3419 0.0282 0.9393
vn 0.8657 0.0282 0.4998
vn 0.8654 0.0381 0.4996
vn 0.3418 0.0381 0.9390
vn 0.3418 0.0395 0.9390
vn 0.8654 0.0395 0.4996
vn 0.9831 0.0584 -0.1734
vn -0.9844 0.0282 -0.1736
vn -0.8657 0.0282 0.4998
vn -0.8654 0.0381 0.4996
vn -0.9841 0.0381 -0.1735
vn -0.8654 0.0395 0.4996
vn -0.3418 0.0395 0.9390
vn -0.3419 0.0282 0.9393
vn 0.8645 0.0584 0.4991
vn 0.0000 0.0282 -0.9996
vn -0.6425 0.0282 -0.7657
vn -0.6423 0.0381 -0.7655
vn -0.0000 0.0381 -0.9993
vn -0.6423 0.0395 -0.7654
vn -0.9840 0.0395 -0.1735
vn 0.3414 0.0584 0.9381
vn -0.3418 0.0381 0.9390
vn -0.3414 0.0584 0.9381
vn -0.8645 0.0584 0.4991
vn 0.0000 1.0000 0.0000
vn -0.9831 0.0584 -0.1734
vn -0.6417 0.0584 -0.7647
vn -0.6146 -0.2931 -0.7324
vn -0.9416 -0.2931 -0.1660
vn -0.3270 -0.2931 0.8984
vn -0.8280 -0.2931 0.4780
vn -0.0000 -1.0000 0.0000
vn 0.6146 -0.2931 -0.7324
vn 0.0000 -0.2931 -0.9561
vn 0.3270 -0.2931 0.8984
vn 0.8280 -0.2931 0.4780
vn 0.9416 -0.2931 -0.1660
usemtl snow
s 1
f 37//1 47//2 38//3
f 38//4 47//5 39//6
f 39//6 47//5 40//7
f 40//8 47//9 41//10
f 41//10 47//9 42//11
f 42//12 47//13 43//14
f 43//14 47//13 44//15
f 44//16 47//17 45//18
f 45//18 47//17 46//19
f 46//20 47//21 48//22
f 48//22 47//21 49//23
f 49//24 47//25 50//25
f 50//25 47//25 51//26
f 51//27 47//2 37//1
f 52//28 62//28 53//29
f 53//30 62//31 54//31
f 54//31 62//31 55//32
f 55//33 62//34 56//34
f 56//34 62//34 57//35
f 57//36 62//37 58//37
f 58//37 62//37 59//38
f 59//39 62//40 60//40
f 60//40 62//40 61//41
f 61//42 62//43 63//43
f 63//43 62//43 64//44
f 64//45 62//46 65//46
f 65//46 62//46 66//47
f 66//48 62//28 52//28
f 67//49 77//49 68//50
f 68//51 77//52 69//52
f 69//52 77//52 70//53
f 70//54 77//55 71//55
f 71//55 77//55 72//56
f 72//57 77//58 73//58
f 73//58 77//58 74//59
f 74//60 77//61 75//61
f 75//61 77//61 76//62
f 76//63 77//64 78//64
f 78//64 77//64 79//65
f 79//66 77//67 80//67
f 80//67 77//67 81//68
f 81//69 77//49 67//49
f 82//70 92//70 83//71
f 83//72 92//73 84//73
f 84//73 92//73 85//74
f 85//75 92//76 86//76
f 86//76 92//76 87//77
f 87//78 92//79 88//79
f 88//79 92//79 89//80
f 89//81 92//82 90//82
f 90//82 92//82 91//83
f 91//84 92//85 93//85
f 93//85 92//85 94//86
f 94//87 92//88 95//88
f 95//88 92//88 96//89
f 96//90 92//70 82//70
f 97//91 107//91 98//92
f 98//93 107//94 99//94
f 99//94 107//94 100//95
f 100//96 107//97 101//97
f 101//97 107//97 102//98
f 102//99 107//100 103//100
f 103//100 107//100 104//101
f 104//102 107//103 105//103
f 105//103 107//103 106//104
f 106//105 107//106 108//106
f 108//106 107//106 109//107
f 109//108 107//109 110//109
f 110//109 107//109 111//110
f 111//111 107//91 97//91
f 112//112 122//112 113//113
f 113//114 122//115 114//115
f 114//115 122//115 115//116
f 115//117 122//118 116//118
f 116//118 122//118 117//119
f 117//120 122//121 118//121
f 118//121 122//121 119//122
f 119//123 122//124 120//124
f 120//124 122//124 121//125
f 121//126 122//127 123//127
f 123//127 122//127 124//128
f 124//129 122//130 125//130
f 125//130 122//130 126//131
f 126//132 122//112 112//112
usemtl tree
f 21//133 1//134 28//135 30//136
f 8//137 6//138 1//134 21//133
f 3//139 4//140 6//138 5//141
f 23//142 22//143 31//144 32//145
f 12//146 10//147 22//143 23//142
f 5//141 6//138 8//137 7//148
f 26//149 25//150 34//151 35//152
f 16//153 14//154 24//155 25//150
f 7//148 8//137 10//147 9//156
f 2//157 27//158 36//159 29//160
f 20//161 18//162 26//149 27//158
f 9//156 10//147 12//146 11//163
f 24//155 23//142 32//145 33//164
f 4//140 20//161 27//158 2//157
f 11//163 12//146 14//154 13//165
f 22//143 21//133 30//136 31//144
f 10//147 8//137 21//133 22//143
f 13//165 14//154 16//153 15//166
f 28//167 29//167 36//167 35//167 34//167 33//167 32//167 31//167 30//167
f 14//154 12//146 23//142 24//155
f 15//166 16//153 18//162 17//168
f 18//162 16//153 25//150 26//149
f 1//134 2//157 29//160 28//135
f 17//168 18//162 20//161 19//169
f 27//158 26//149 35//152 36//159
f 6//138 4//140 2//157 1//134
f 19//169 20//161 4//140 3//139
f 17//168 19//169 135//170 134//171
f 25//150 24//155 33//164 34//151
f 132//172 133//173 136//174
f 13//165 15//166 133//173 132//172
f 3//139 5//141 128//175 127//176
f 9//156 11//163 131//177 130//178
f 19//169 3//139 127//176 135//170
f 5//141 7//148 129//179 128//175
f 15//166 17//168 134//171 133//173
f 11//163 13//165 132//172 131//177
f 7//148 9//156 130//178 129//179
f 129//179 130//178 136//174
f 133//173 134//171 136//174
f 130//178 131//177 136//174
f 127//176 128//175 136//174
f 134//171 135//170 136//174
f 131//177 132//172 136//174
f 128//175 129//179 136//174
f 135//170 127//176 136//174
