# Blender v2.79 (sub 0) OBJ File: 'lullabyassets.blend'
# www.blender.org
mtllib rockhuge.mtl
o rockhuge_Plane.002
v -1.378586 4.263510 0.000000
v 0.351851 4.881938 -2.134610
v -0.964742 4.384245 -1.319236
v -1.295813 4.271106 -0.756646
v 0.766535 5.059099 -1.783959
v 1.778309 5.025471 0.348409
v 1.572181 4.727655 1.536722
v 1.033969 3.891691 2.959164
v -0.258259 3.891691 2.959164
v -1.294865 3.928229 2.482271
v -1.780615 4.177093 1.044921
v -1.795969 3.612601 -0.140707
v 0.255659 4.345817 -2.671527
v -1.305310 3.755747 -1.704810
v -1.435160 4.104744 -0.866061
v 0.797952 4.957983 -1.978435
v 1.946884 4.515991 0.272371
v 1.670304 4.599096 1.617200
v 1.087529 3.693913 3.157420
v -0.467695 3.171768 3.367713
v -1.434134 3.733476 2.641040
v -1.960104 4.002947 1.084677
v -1.899654 2.222251 -0.179034
v 0.288688 3.004326 -2.878500
v -1.376299 2.374936 -1.847363
v -1.514802 2.747189 -0.952723
v 0.867118 3.657286 -2.139222
v 2.092611 3.185841 0.261571
v 1.797602 3.274484 1.696015
v 1.175992 2.308982 3.338872
v -0.482868 1.752043 3.563178
v -1.513707 2.351182 2.788082
v -2.074726 2.638608 1.128007
v -2.007849 0.315301 -0.213807
v 0.437617 1.189267 -3.230453
v -1.423002 0.485925 -2.078161
v -1.577778 0.901917 -1.078402
v 1.084010 1.918947 -2.404312
v 2.453495 1.392109 0.278567
v 2.123823 1.491167 1.881554
v 1.429176 0.412222 3.717441
v -0.424596 -0.210157 3.968103
v -1.576555 0.459380 3.101935
v -2.203492 0.780578 1.246807
v -1.943724 -0.923103 -0.152341
v 0.501742 -0.412921 -3.168987
v -1.358876 -0.823500 -2.016695
v -1.513652 -0.580663 -1.016936
v 1.148136 0.013034 -2.342846
v 2.517621 -0.294511 0.340033
v 2.187948 -0.236685 1.943020
v 1.493301 -0.866525 3.778907
v -0.360470 -1.229841 4.029569
v -1.512429 -0.838996 3.163401
v -2.139366 -0.651495 1.308273
v -1.602157 -1.591850 0.034417
v 0.428363 -1.168236 -2.470366
v -1.116547 -1.509148 -1.513594
v -1.245060 -1.307515 -0.683474
v 0.965077 -0.814557 -1.784404
v 2.102188 -1.069917 0.443245
v 1.828455 -1.021903 1.774238
v 1.251675 -1.544872 3.298613
v -0.287549 -1.846541 3.506742
v -1.244045 -1.522014 2.787546
v -1.764603 -1.366328 1.247195
v -1.927682 2.288909 0.030219
v -1.876705 2.529984 -0.170551
v -1.904977 2.461753 -0.026707
v -1.982089 3.915782 0.811049
v -1.968150 3.906793 0.981501
v -2.015083 3.607982 0.865662
v -1.997840 3.568450 0.968782
v -0.471587 2.807663 3.417842
v -0.276633 3.253795 3.399816
v -0.350584 2.978493 3.383679
vn 0.9450 0.2000 0.2587
vn 0.9060 0.1114 0.4083
vn 0.8816 0.1771 0.4376
vn 0.9398 0.1478 0.3082
vn -0.8636 0.4389 -0.2480
vn -0.9811 0.0691 -0.1806
vn -0.9832 0.0534 -0.1745
vn -0.9537 0.0669 -0.2933
vn -0.8751 0.4800 0.0620
vn -0.9466 0.2922 -0.1360
vn -0.9966 0.0810 -0.0142
vn -0.9197 0.3619 -0.1524
vn -0.9272 0.2729 -0.2565
vn -0.9568 0.0722 -0.2815
vn -0.9852 0.0669 -0.1578
vn -0.9860 0.0627 -0.1543
vn -0.9932 0.0748 0.0887
vn 0.8470 0.2009 -0.4922
vn 0.9605 0.2513 -0.1197
vn 0.9794 0.1563 -0.1277
vn 0.8131 0.1414 -0.5647
vn 0.0792 0.4663 0.8811
vn -0.0003 0.3555 0.9347
vn 0.0288 0.0872 0.9958
vn -0.2537 0.1187 0.9600
vn -0.2496 0.1648 0.9542
vn 0.0835 0.1533 0.9846
vn -0.9567 0.0665 -0.2835
vn 0.7264 0.1222 -0.6763
vn 0.6955 0.1734 -0.6973
vn -0.2750 0.2835 0.9187
vn -0.6689 0.4041 0.6239
vn -0.7864 0.1154 0.6068
vn -0.6239 0.4085 -0.6662
vn -0.5872 0.4065 -0.7000
vn -0.5539 0.1140 -0.8248
vn -0.5539 0.1141 -0.8247
vn 0.8131 0.1216 -0.5692
vn 0.7595 0.0615 -0.6476
vn -0.7909 0.0661 0.6084
vn -0.2573 0.0935 0.9618
vn 0.9395 0.1396 0.3129
vn 0.9857 0.1058 -0.1309
vn -0.5386 0.0407 -0.8416
vn -0.5319 0.0126 -0.8467
vn -0.9949 0.0246 0.0974
vn 0.9109 0.1020 0.3999
vn -0.9887 -0.0170 -0.1489
vn -0.9554 0.0141 -0.2949
vn -0.9542 -0.0159 -0.2987
vn 0.0869 0.1434 0.9858
vn -0.9739 -0.2044 -0.0988
vn -0.9302 -0.2210 -0.2930
vn -0.8958 -0.3146 -0.3140
vn -0.9655 -0.2369 0.1086
vn 0.8521 -0.2445 -0.4627
vn 0.8421 -0.1904 -0.5045
vn 0.1182 0.0596 0.9912
vn 0.8205 -0.2402 -0.5188
vn -0.7970 -0.2504 0.5497
vn -0.6360 -0.3116 0.7060
vn 0.9506 -0.1739 0.2573
vn 0.9601 -0.1913 0.2040
vn -0.4578 -0.2797 -0.8439
vn -0.4161 -0.3986 -0.8173
vn 0.9344 -0.2176 0.2821
vn -0.7494 -0.5200 0.4098
vn -0.6126 -0.5520 0.5657
vn 0.8770 -0.4420 0.1883
vn 0.8750 -0.4427 0.1959
vn -0.3030 -0.6311 -0.7141
vn -0.8777 -0.4687 0.0995
vn 0.8789 -0.4413 0.1811
vn -0.9283 -0.3679 -0.0543
vn -0.8135 -0.4624 -0.3527
vn -0.8267 -0.4963 -0.2650
vn 0.7640 -0.4684 -0.4437
vn 0.7808 -0.4589 -0.4241
vn 0.2228 -0.6149 0.7564
vn 0.8020 -0.4457 -0.3977
vn 0.1707 0.7482 0.6411
vn -0.1519 0.7781 0.6095
vn 0.8271 0.4308 -0.3610
vn 0.9019 0.4230 -0.0875
vn -0.5116 0.8570 -0.0619
vn -0.6212 0.7743 -0.1205
vn 0.1035 0.7454 -0.6586
vn -0.4836 0.6792 0.5521
vn 0.9027 0.3788 0.2041
vn -0.5145 0.8216 -0.2455
vn -0.4817 0.8342 -0.2686
vn -0.7235 0.6902 -0.0136
vn -0.0273 0.9326 0.3599
vn 0.4379 0.6929 0.5729
vn -0.1608 0.9781 0.1324
vn -0.2656 0.9512 0.1571
vn -0.3383 0.9358 0.0989
vn -0.0516 0.9810 0.1873
usemtl rock
s 1
f 18//1 19//2 30//3 29//4
f 15//5 14//6 25//7 26//8
f 22//9 71//10 73//11 72//11 70//12 12//13 68//14 69//15 67//16 33//17
f 16//18 17//19 28//20 27//21
f 19//22 75//23 76//24 74//25 31//26 30//27
f 12//13 15//5 26//8 23//28 68//14
f 13//29 16//18 27//21 24//30
f 20//31 21//32 32//33 31//26 74//25
f 17//19 18//1 29//4 28//20
f 14//34 13//35 24//36 25//37
f 21//32 22//9 33//17 32//33
f 24//30 27//21 38//38 35//39
f 31//26 32//33 43//40 42//41
f 28//20 29//4 40//42 39//43
f 25//37 24//36 35//44 36//45
f 32//33 33//17 44//46 43//40
f 29//4 30//3 41//47 40//42
f 26//8 25//7 36//48 37//49
f 33//17 67//16 23//28 34//50 44//46
f 27//21 28//20 39//43 38//38
f 30//27 31//26 42//41 41//51
f 23//28 26//8 37//49 34//50
f 37//49 36//48 47//52 48//53
f 44//46 34//50 45//54 55//55
f 38//38 39//43 50//56 49//57
f 41//51 42//41 53//58 52//58
f 34//50 37//49 48//53 45//54
f 35//39 38//38 49//57 46//59
f 42//41 43//40 54//60 53//61
f 39//43 40//42 51//62 50//63
f 36//45 35//44 46//64 47//65
f 43//40 44//46 55//55 54//60
f 40//42 41//47 52//66 51//62
f 53//61 54//60 65//67 64//68
f 50//63 51//62 62//69 61//70
f 47//65 46//64 57//71 58//71
f 54//60 55//55 66//72 65//67
f 51//62 52//66 63//73 62//69
f 48//53 47//52 58//74 59//75
f 55//55 45//54 56//76 66//72
f 49//57 50//56 61//77 60//78
f 52//79 53//79 64//79 63//79
f 45//54 48//53 59//75 56//76
f 46//59 49//57 60//78 57//80
usemtl snow
f 8//81 9//82 20//31 75//23 19//22
f 5//83 6//84 17//19 16//18
f 1//85 4//86 15//5 12//13
f 2//87 5//87 16//87 13//87
f 9//82 10//88 21//32 20//31
f 6//84 7//89 18//1 17//19
f 3//90 2//91 13//35 14//34
f 10//88 11//92 22//9 21//32
f 7//93 8//81 19//22 18//94
f 4//86 3//90 14//34 15//5
f 1//85 12//13 70//12 71//10 22//9 11//92
f 4//86 1//85 3//90
f 7//93 11//95 9//82
f 1//85 6//96 3//90
f 5//97 2//91 3//90
f 8//81 7//93 9//82
f 7//93 6//96 1//85
f 6//96 5//97 3//90
f 11//95 10//98 9//82
f 1//85 11//95 7//93
f 67//16 69//15 68//14 23//28
f 70//12 72//11 73//11 71//10
f 74//25 76//24 75//23 20//31
