# Blender v2.79 (sub 0) OBJ File: 'lullaby.blend'
# www.blender.org
mtllib shedclosed.mtl
o shedclosed_Cube.001
v -2.918219 0.044774 1.842091
v -2.918219 3.869623 1.842091
v -2.918219 0.044774 -1.842091
v -2.918219 3.869623 -1.842091
v 2.918219 0.044774 1.842091
v 2.918219 3.869623 1.842091
v 2.918219 0.044774 -1.842091
v 2.918219 3.869623 -1.842091
v -3.090585 3.869623 1.952698
v -3.090585 3.869623 -1.952698
v 3.090585 3.869623 1.952698
v 3.090585 3.869623 -1.952698
v -3.090585 4.030982 2.002606
v -3.090585 4.030982 -2.002606
v 3.090585 4.030982 2.002606
v 3.090585 4.030982 -2.002606
v -3.090585 5.329073 0.099386
v -3.090585 5.329073 -0.099386
v 3.090585 5.329073 0.099386
v 3.090585 5.329073 -0.099386
vn -1.0000 0.0000 0.0000
vn 0.0000 0.0000 -1.0000
vn 1.0000 0.0000 0.0000
vn 0.0000 0.0000 1.0000
vn 0.0000 -1.0000 0.0000
vn 0.0000 -0.2955 -0.9553
vn 0.0000 -0.2955 0.9553
vn 0.0000 1.0000 0.0000
vn 0.0000 0.8261 0.5635
vn 0.0000 0.8261 -0.5635
usemtl wood
s off
f 1//1 2//1 4//1 3//1
f 3//2 4//2 8//2 7//2
f 7//3 8//3 6//3 5//3
f 5//4 6//4 2//4 1//4
f 4//5 2//5 9//5 10//5
f 12//6 10//6 14//6 16//6
f 2//5 6//5 11//5 9//5
f 8//5 4//5 10//5 12//5
f 6//5 8//5 12//5 11//5
f 11//3 12//3 16//3 15//3
f 10//1 9//1 13//1 14//1
f 9//7 11//7 15//7 13//7
f 14//1 13//1 17//1 18//1
usemtl snow
f 3//5 7//5 5//5 1//5
f 15//3 16//3 20//3 19//3
f 20//8 18//8 17//8 19//8
f 13//9 15//9 19//9 17//9
f 16//10 14//10 18//10 20//10
